<svg width="213" height="359" viewBox="0 0 213 359" fill="none" xmlns="http://www.w3.org/2000/svg">
<circle cx="187.5" cy="179.5" r="163.5" transform="rotate(5.68425 187.5 179.5)" fill="#6346FA"/>
<mask id="mask0_3593_1557" style="mask-type:alpha" maskUnits="userSpaceOnUse" x="23" y="15" width="329" height="329">
<circle cx="187.5" cy="179.5" r="163.5" transform="rotate(5.68425 187.5 179.5)" fill="#6346FA"/>
</mask>
<g mask="url(#mask0_3593_1557)">
<path d="M76.4806 145.952C179.123 228.152 360.187 241.822 437.889 238.382L430.071 94.6323C400.47 63.2235 339.622 -0.0572128 333.046 -1.90958C326.469 -3.76195 210.757 -16.9262 153.723 -23.2768C85.2077 -1.117 -26.1619 63.7526 76.4806 145.952Z" fill="#E0EAFF" fill-opacity="0.18"/>
</g>
<mask id="mask1_3593_1557" style="mask-type:alpha" maskUnits="userSpaceOnUse" x="23" y="15" width="329" height="329">
<path d="M350.196 195.694C341.252 285.549 261.16 351.14 171.306 342.196C81.4512 333.252 15.86 253.16 24.8038 163.306C33.7475 73.4514 113.839 7.86018 203.694 16.8039C293.548 25.7476 359.14 105.839 350.196 195.694Z" fill="white"/>
</mask>
<g mask="url(#mask1_3593_1557)">
<path opacity="0.1" d="M315.372 282.618C372.362 211.955 361.276 108.466 290.612 51.4767C290.612 51.4767 330.293 137.521 254.5 231.5C178.707 325.479 84.2308 307.378 84.2308 307.378C154.894 364.368 258.383 353.282 315.372 282.618Z" fill="black"/>
</g>
<circle cx="48.4999" cy="105.5" r="42.5" transform="rotate(7.84595 48.4999 105.5)" fill="#EEEEEE"/>
<mask id="mask2_3593_1557" style="mask-type:alpha" maskUnits="userSpaceOnUse" x="5" y="62" width="87" height="87">
<circle cx="48.4999" cy="105.5" r="42.5" transform="rotate(7.84595 48.4999 105.5)" fill="white"/>
</mask>
<g mask="url(#mask2_3593_1557)">
<path opacity="0.08" d="M80.6467 137.475C97.1174 120.776 97.1174 93.6994 80.6467 77C80.6467 77 85.4498 98.3726 63.5447 120.582C41.6395 142.791 20.9998 137.475 20.9998 137.475C37.4704 154.175 64.1761 154.175 80.6467 137.475Z" fill="black"/>
<ellipse rx="13.6389" ry="12.9696" transform="matrix(0.995901 0.090454 -0.107745 0.994179 16.9036 82.0638)" fill="#DDDDDD" fill-opacity="0.55"/>
<ellipse rx="13.6389" ry="12.9696" transform="matrix(0.995901 0.090454 -0.107745 0.994179 66.9465 77.8558)" fill="#DDDDDD" fill-opacity="0.67"/>
<mask id="mask3_3593_1557" style="mask-type:alpha" maskUnits="userSpaceOnUse" x="3" y="69" width="31" height="28">
<ellipse rx="15.2025" ry="13.8272" transform="matrix(0.995901 0.090454 -0.107745 0.994179 18.3684 83.0579)" fill="#E89199"/>
</mask>
<g mask="url(#mask3_3593_1557)">
<path opacity="0.1" d="M27.5614 90.2047C32.3105 84.6243 31.4189 76.4802 25.57 72.0149C25.57 72.0149 30.9281 80.5535 24.6121 87.9751C18.296 95.3967 8.37154 92.2235 8.37154 92.2235C14.2204 96.6889 22.8123 95.785 27.5614 90.2047Z" fill="black" fill-opacity="0.65"/>
</g>
<mask id="mask4_3593_1557" style="mask-type:alpha" maskUnits="userSpaceOnUse" x="53" y="64" width="29" height="29">
<ellipse rx="14.0608" ry="13.6857" transform="matrix(0.995901 0.090454 -0.107745 0.994179 67.2896 78.606)" fill="#E89199"/>
</mask>
<g mask="url(#mask4_3593_1557)">
<path opacity="0.1" d="M77.6043 85.9967C82.3534 80.4163 81.4618 72.2722 75.6129 67.8068C75.6129 67.8068 80.9711 76.3455 74.655 83.7671C68.339 91.1887 58.4145 88.0155 58.4145 88.0155C64.2634 92.4809 72.8552 91.577 77.6043 85.9967Z" fill="black" fill-opacity="0.83"/>
</g>
<ellipse rx="8.76977" ry="9.15329" transform="matrix(0.9963 0.08594 -0.110313 0.993897 44.7816 114.17)" fill="#DDDDDD" fill-opacity="0.71"/>
<mask id="mask5_3593_1557" style="mask-type:alpha" maskUnits="userSpaceOnUse" x="35" y="105" width="19" height="19">
<ellipse rx="8.76977" ry="9.15329" transform="matrix(0.9963 0.08594 -0.110313 0.993897 44.7816 114.17)" fill="#E89199"/>
</mask>
<g mask="url(#mask5_3593_1557)">
<path opacity="0.1" d="M51.5762 119.815C54.6823 115.843 54.1774 110.112 50.4485 107.015C50.4485 107.015 53.8267 112.986 49.6958 118.269C45.5648 123.553 39.2002 121.401 39.2002 121.401C42.9291 124.498 48.4702 123.788 51.5762 119.815Z" fill="black" fill-opacity="0.68"/>
</g>
</g>
</svg>
